<svg width="2598.051" height="312.277" xmlns="http://www.w3.org/2000/svg" version="1.1" enable-background="new 0 0 2598.051 312.277" xml:space="preserve">
 <g>
  <title>Layer 1</title>
  <g id="Layer_x0020_1">
   <g id="_635827488">
    <path fill="#ffffff" d="m2328.776,21.828c-39.972,7.054 -84.433,23.086 -129.321,41.896c5.558,3.634 10.688,7.481 15.818,11.756c65.836,-27.36 132.742,-47.881 205.846,-39.972c176.561,19.238 158.178,170.362 99.61,200.074c-32.063,16.246 -109.229,10.474 -116.283,-55.79c-2.138,-20.307 2.992,-42.965 16.459,-57.714c7.696,-8.336 5.344,-6.84 14.963,-3.634c11.115,4.062 22.872,6.627 32.705,0.428c25.437,-16.245 -12.398,-46.385 -51.088,-16.887c-56.217,42.751 -39.544,165.66 75.883,158.178c85.074,-5.557 110.084,-115.855 60.065,-179.981c-48.309,-61.774 -148.56,-72.034 -224.657,-58.354z" id="svg_1"/>
    <path fill="#ffffff" d="m269.275,21.828c39.972,7.054 84.433,23.086 129.321,41.896c-5.557,3.634 -10.688,7.481 -15.818,11.756c-65.836,-27.36 -132.742,-47.881 -205.846,-39.972c-176.561,19.238 -158.177,170.363 -99.609,200.075c32.063,16.246 109.229,10.474 116.283,-55.79c2.138,-20.307 -2.992,-42.965 -16.459,-57.714c-7.696,-8.336 -5.344,-6.84 -14.963,-3.634c-11.116,4.062 -22.872,6.627 -32.705,0.428c-25.437,-16.245 12.398,-46.385 51.088,-16.887c56.217,42.751 39.544,165.66 -75.883,158.178c-85.075,-5.557 -110.084,-115.854 -60.065,-179.981c48.308,-61.775 148.559,-72.035 224.656,-58.355z" id="svg_2"/>
    <path fill="#ffffff" d="m2275.551,163.761l100.038,0c0.427,-5.344 1.069,-10.688 2.138,-15.818l-106.237,0c1.497,5.344 2.993,10.474 4.061,15.818z" id="svg_3"/>
    <path fill="#ffffff" d="m322.5,163.761l-100.038,0c-0.427,-5.344 -1.069,-10.688 -2.138,-15.818l106.237,0c-1.497,5.344 -2.993,10.474 -4.061,15.818z" id="svg_4"/>
    <path fill="#ffffff" d="m2415.134,163.761l135.306,0c0.428,-5.344 0.428,-10.688 0,-15.818l-131.887,0c-1.71,5.13 -2.779,10.474 -3.419,15.818z" id="svg_5"/>
    <path fill="#ffffff" d="m182.917,163.761l-135.306,0c-0.428,-5.344 -0.428,-10.688 0,-15.818l131.887,0c1.71,5.13 2.779,10.474 3.419,15.818z" id="svg_6"/>
    <path fill="#ffffff" d="m2178.507,91.512c-6.413,-4.061 -12.825,-7.695 -19.238,-10.688c-37.193,16.459 -73.959,33.559 -107.091,47.24l-128.467,47.667c-23.513,8.123 -70.753,20.521 -70.967,35.911c-0.214,17.528 33.559,10.688 33.987,-2.565l0,-1.924l101.533,-35.483c54.935,-20.093 109.228,-43.606 163.309,-67.974c8.978,-4.061 17.957,-8.122 26.934,-12.184z" id="svg_7"/>
    <path fill="#ffffff" d="m419.544,91.512c6.413,-4.061 12.825,-7.695 19.238,-10.688c37.193,16.459 73.959,33.559 107.091,47.24l128.466,47.667c23.513,8.123 70.753,20.521 70.966,35.911c0.214,17.528 -33.559,10.688 -33.987,-2.565l0,-1.924l-101.532,-35.483c-54.935,-20.093 -109.228,-43.606 -163.309,-67.974c-8.977,-4.061 -17.956,-8.122 -26.933,-12.184z" id="svg_8"/>
    <path fill="#ffffff" d="m1967.532,147.943l-111.367,0l-7.482,3.634c-8.336,4.061 -16.459,8.122 -24.795,12.184l101.107,0l42.537,-15.818z" id="svg_9"/>
    <path fill="#ffffff" d="m630.519,147.943l111.367,0l7.482,3.634c8.336,4.061 16.459,8.122 24.795,12.184l-101.106,0l-42.538,-15.818z" id="svg_10"/>
    <path fill="#ffffff" d="m1345.506,163.761l317.853,0c2.138,-2.351 4.061,-4.916 5.985,-7.481c2.137,-2.565 4.061,-5.344 5.985,-8.336l-329.824,0l0,15.817l0.001,0z" id="svg_11" stroke-width="0"/>
    <path fill="#ffffff" d="m1252.545,163.761l-317.852,0c-2.138,-2.351 -4.061,-4.916 -5.985,-7.481c-2.137,-2.565 -4.061,-5.344 -5.985,-8.336l329.824,0l0,15.817l-0.002,0z" id="svg_12"/>
    <path fill="#ffffff" d="m2224.891,147.943l-147.276,0c-12.825,5.344 -25.651,10.688 -38.476,15.818l191.951,0c-1.495,-5.344 -3.633,-10.688 -6.199,-15.818z" id="svg_13"/>
    <path fill="#ffffff" d="m373.16,147.943l147.276,0c12.825,5.344 25.651,10.688 38.476,15.818l-191.951,0c1.495,-5.344 3.633,-10.688 6.199,-15.818z" id="svg_14"/>
    <path fill="#ffffff" d="m1927.345,51.326c-66.691,22.23 -162.667,75.241 -230.855,115.641c4.703,-6.626 8.551,-13.039 11.757,-19.452c4.061,-8.764 7.268,-17.314 9.191,-26.292c2.352,-9.405 3.634,-19.238 3.42,-29.284c-0.428,-8.978 -1.924,-17.955 -4.917,-26.292c-3.634,-8.978 -8.978,-17.314 -16.246,-24.368c-6.84,-6.626 -15.39,-11.97 -25.223,-15.604c-9.619,-3.634 -20.734,-5.344 -31.422,-5.558c-11.115,0 -22.017,1.496 -30.994,4.703c-8.123,2.992 -14.749,7.268 -19.665,11.756c-6.413,6.199 -10.047,13.039 -10.902,18.811c-0.641,3.848 0,7.268 1.283,10.046c1.283,2.779 3.206,4.703 5.557,6.199c2.565,1.283 5.344,1.924 8.337,1.496c2.993,-0.427 5.985,-1.71 8.55,-4.275c5.985,-5.344 10.047,-16.459 13.895,-28.216c6.626,-2.138 15.176,-3.206 23.727,-3.206c8.764,0.214 17.956,1.71 25.65,4.489c7.482,2.779 13.895,6.84 19.239,11.756c5.344,5.13 9.405,11.329 11.97,18.169c2.352,6.413 3.634,13.467 3.848,20.521c0.213,8.336 -0.855,16.673 -2.993,25.009c-1.71,7.695 -4.275,15.176 -7.909,22.444c-3.634,7.481 -8.55,14.963 -14.535,23.086c-50.66,66.264 -162.881,100.892 -242.826,87.212c-61.134,-10.26 -111.579,-51.729 -106.877,-116.496c3.206,-47.667 53.011,-56.431 85.074,-49.591c5.131,11.115 11.33,25.223 22.231,31.422c17.314,9.833 36.979,-1.924 31.208,-19.238c-8.978,-26.933 -54.507,-38.689 -86.785,-34.628c-95.335,11.757 -84.006,110.084 -46.599,157.109c68.829,86.784 222.519,54.508 308.234,20.52c126.97,-50.66 325.976,-181.05 454.656,-177.63c37.621,0.855 65.195,9.191 92.556,29.284c104.953,77.379 46.171,193.234 -41.896,182.333c-18.81,-2.138 -35.269,-11.543 -49.377,-21.162c2.778,-17.742 5.558,-37.193 -7.268,-44.889c-25.864,-15.39 -66.264,36.552 19.665,77.379c99.61,47.24 203.281,-63.057 134.879,-166.301c-66.69,-100.676 -215.249,-101.103 -317.638,-66.903z" id="svg_15"/>
    <path fill="#ffffff" d="m670.706,51.326c66.691,22.23 162.667,75.241 230.855,115.641c-4.703,-6.626 -8.551,-13.039 -11.757,-19.452c-4.061,-8.764 -7.268,-17.314 -9.191,-26.292c-2.352,-9.405 -3.634,-19.238 -3.42,-29.284c0.428,-8.978 1.924,-17.955 4.917,-26.292c3.634,-8.978 8.978,-17.314 16.246,-24.368c6.84,-6.626 15.39,-11.97 25.223,-15.604c9.619,-3.634 20.734,-5.344 31.422,-5.558c11.115,0 22.017,1.496 30.994,4.703c8.123,2.992 14.749,7.268 19.665,11.756c6.413,6.199 10.047,13.039 10.902,18.811c0.641,3.848 0,7.268 -1.283,10.046c-1.283,2.779 -3.206,4.703 -5.557,6.199c-2.565,1.283 -5.344,1.924 -8.336,1.496c-2.993,-0.427 -5.985,-1.71 -8.55,-4.275c-5.985,-5.344 -10.047,-16.459 -13.895,-28.216c-6.626,-2.138 -15.176,-3.206 -23.727,-3.206c-8.764,0.214 -17.956,1.71 -25.65,4.489c-7.482,2.779 -13.895,6.84 -19.239,11.756c-5.343,5.13 -9.405,11.329 -11.97,18.169c-2.352,6.413 -3.634,13.467 -3.848,20.521c-0.213,8.336 0.855,16.673 2.993,25.009c1.71,7.695 4.275,15.176 7.909,22.444c3.634,7.481 8.55,14.963 14.535,23.086c50.66,66.264 162.881,100.892 242.826,87.212c61.134,-10.26 111.579,-51.729 106.877,-116.496c-3.206,-47.667 -53.011,-56.431 -85.074,-49.591c-5.131,11.115 -11.329,25.223 -22.231,31.422c-17.314,9.833 -36.979,-1.924 -31.208,-19.238c8.978,-26.933 54.508,-38.689 86.785,-34.628c95.335,11.757 84.006,110.084 46.599,157.109c-68.829,86.784 -222.519,54.508 -308.234,20.52c-126.97,-50.66 -325.976,-181.05 -454.656,-177.63c-37.621,0.855 -65.195,9.191 -92.556,29.284c-104.953,77.379 -46.17,193.234 41.896,182.333c18.81,-2.138 35.269,-11.543 49.377,-21.162c-2.778,-17.742 -5.558,-37.193 7.268,-44.889c25.864,-15.39 66.264,36.552 -19.665,77.379c-99.61,47.24 -203.281,-63.057 -134.879,-166.301c66.689,-100.676 215.248,-101.103 317.637,-66.903z" id="svg_16"/>
   </g>
  </g>
 </g>

</svg>